<?xml version="1.0" encoding="UTF-8"?>
<!DOCTYPE svg PUBLIC "-//W3C//DTD SVG 1.1//EN" "http://www.w3.org/Graphics/SVG/1.1/DTD/svg11.dtd">
<!-- Creator: CorelDRAW 2018 (64-Bit) -->
<svg xmlns="http://www.w3.org/2000/svg" xml:space="preserve" width="20.6093mm" height="21.5196mm" version="1.1" style="shape-rendering:geometricPrecision; text-rendering:geometricPrecision; image-rendering:optimizeQuality; fill-rule:evenodd; clip-rule:evenodd"
viewBox="0 0 120.13 125.44"
 xmlns:xlink="http://www.w3.org/1999/xlink">
 <defs>
  <style type="text/css">
   <![CDATA[
    .fil0 {fill:black}
   ]]>
  </style>
 </defs>
 <g id="Layer_x0020_1">
  <metadata id="CorelCorpID_0Corel-Layer"/>
  <path class="fil0" d="M53.15 44.72c-2.39,3.53 -8.32,12.71 -4.66,15.19 23.32,15.83 57.4,-34.36 42.87,-50.7 -17.62,26.04 -29.29,22.36 -38.21,35.5zm-51.3 13.51c-10.13,24.76 23.52,62.81 47.33,47.32 -0.34,-5.27 -5.37,-12.45 -8.33,-15.62 -3.99,-4.28 -7.98,-6.53 -13.58,-9.79 -5.2,-3.02 -10.08,-5.91 -14.37,-9.62 -5.8,-5.02 -9.02,-11.59 -11.04,-12.3zm50.83 42.62c2.45,-3.22 2.92,-7.77 2.92,-12.24 0,-19.56 -23.09,-44.41 -42.26,-39.91 -2.3,0.54 -7.18,2.6 -7.83,4.54 -1.54,4.62 10.95,15.36 15.86,18.77 2.73,1.9 4.81,3 7.65,4.61 22.74,12.92 19.46,20.97 23.66,24.23zm64.37 -30.54c-2.11,1.19 -2.61,3.79 -5.16,7.68 -1.75,2.66 -3.06,4.49 -5.38,6.81 -10.57,10.56 -19.55,13.31 -26.32,24.51 -1.77,2.93 -2.58,4.91 -3.63,8.18 -1.33,4.15 -2.29,5.39 2.47,6.94 23.71,7.72 50.26,-31.09 38.02,-54.12zm-45.68 48.4c1.81,-1.59 2.32,-5.22 3.53,-7.78 7.91,-16.76 20.41,-18.3 29.87,-30.14 2.56,-3.21 8.12,-10.12 8.62,-14.89 -21.96,-17.42 -58.65,26.9 -42.01,52.81zm-27.79 -64.05c5.1,-8.18 3.15,-12.36 17.66,-22.62 13.65,-9.66 15.16,-8.06 25.1,-22.71 1.37,-2.02 1.7,-3.22 1.84,-4.98 -7.26,-5.69 -14.65,-4.94 -20.56,-2.67 -17.31,6.65 -38.15,37.95 -24.05,52.98z"/>
 </g>
</svg>
