<?xml version="1.0" encoding="UTF-8"?>
<!DOCTYPE svg PUBLIC "-//W3C//DTD SVG 1.1//EN" "http://www.w3.org/Graphics/SVG/1.1/DTD/svg11.dtd">
<!-- Creator: CorelDRAW 2018 (64-Bit) -->
<svg xmlns="http://www.w3.org/2000/svg" xml:space="preserve" width="43.5592mm" height="54.9474mm" version="1.1" style="shape-rendering:geometricPrecision; text-rendering:geometricPrecision; image-rendering:optimizeQuality; fill-rule:evenodd; clip-rule:evenodd"
viewBox="0 0 287.61 362.8"
 xmlns:xlink="http://www.w3.org/1999/xlink">
 <defs>
  <style type="text/css">
   <![CDATA[
    .fil0 {fill:black}
   ]]>
  </style>
 </defs>
 <g id="Layer_x0020_1">
  <metadata id="CorelCorpID_0Corel-Layer"/>
  <path class="fil0" d="M146.99 196.78c0,-6.57 -0.82,-10.66 10.4,-6.89 1.68,4.69 2.23,13.52 -4.64,14.01 -5.29,0.37 -5.76,-2.52 -5.76,-7.12zm70.52 -147.02c1.27,0 2.87,0.09 4.1,0.01 1.2,-0.07 0.83,0.08 1.92,-0.32 2.43,-0.89 0.29,-0 1.18,-0.81 -1.87,-0.97 -5.41,-0.96 -7.2,1.12zm-54.92 92.65c0.92,-3.4 1.37,-8.39 0.29,-11.47 -1.55,2.12 -0.79,8.49 -0.29,11.47zm66.25 -78.68c0.31,1.86 1.32,2.3 3.26,2.17 3.32,-0.22 2.89,-2.42 2.89,-2.43 -2.73,-1 -3.32,-0.13 -6.15,0.26zm-122.91 178.65c-2.13,3.5 -0.83,7.02 -0.64,10.86 2.11,-1.83 1.11,-8.57 0.64,-10.86zm70.44 -38.42c1.98,-2.99 1.02,-7.85 0.48,-11.23l-0.85 2.64c-0.6,3.1 -0.27,5.79 0.37,8.59zm10.35 70.52c3.72,0.07 8.57,0.65 11.28,-1.12 -0.11,-0.07 -0.26,-0.18 -0.33,-0.21 -1.94,-0.88 -2.79,-0.69 -5.15,-0.39 -2.95,0.38 -4.67,0.35 -5.79,1.73zm44.91 -188.96c2.01,0 2.66,-0.47 3.23,-2.11 -2.44,-1.28 -7.45,-0.94 -8.84,1.48l5.61 0.64zm-65.55 67.5c0.31,-3.02 1.63,-12.38 0.12,-15.2 -1.12,3.32 -1.72,11.89 -0.12,15.2zm1.61 77.08c0.91,-4.83 1.29,-10.46 0.4,-15.64 0.01,0.38 -1.16,5.75 -1.29,7.46 -0.23,2.89 -0.16,5.8 0.89,8.19zm50.14 -155.36c4.11,0.63 11.57,1.12 15.3,-0.76 -4.35,-0.61 -12.02,-0.73 -15.3,0.76zm10.45 15.82c2.33,0 4.36,-0.6 5.98,-1.51 -2.54,-1.6 -10.44,-0.61 -13.26,0.77l7.28 0.74zm-48.29 200.13c-2.09,-1.13 -7.45,-0.92 -10.41,-0.87l-30.35 1.58 40.76 -0.71zm30.96 -18.45c2.48,0.41 1.2,-0.37 3.92,0.57l0.42 0.15c0,0 1.59,1.75 3.15,2.42 1.55,0.66 4.7,2.65 6.6,3.47l0.39 0.27c1.23,1.31 -0.65,5.73 -8.94,10.27 -0.02,-0.02 -0.17,0.02 -0.83,0.07l-27.41 5.38c-11.06,1.91 -12.96,1.02 -22,1.09 -3.5,0.03 -7.42,0.61 -10.68,0.87 -9.04,0.74 -13.82,-0.01 -22.33,-0.48 -13.95,-0.77 -30.42,-2.21 -42.77,-5.33 -8.36,-2.11 -23.4,-6.56 -31.14,-11.38 -2.02,-1.26 -1.84,-1.71 -3.69,-0.6 1.29,3.74 29,16.67 34.22,18.73 10.86,4.28 35.16,4.93 47.88,5.25 8.59,0.21 16.62,1.35 25.21,0.65 8.37,-0.68 16.16,-1.13 24.09,-2.21 12.89,-1.75 21.58,-2.55 33.31,-6.93 0,0 11.81,-4.02 13.02,0.36 0.03,0.3 0.06,0.59 0.1,0.87l0 0c0.17,1.19 0.44,2.27 0.67,3.63 0.63,3.87 0.87,7.41 0.86,11.44 -0.09,29.27 -8.27,24.86 -36.4,37.41 -3.53,1.58 -6,1.47 -10.03,2.25 -10.86,2.12 -20.14,5.1 -31.84,5.06 -36.94,-0.13 -30.72,3.07 -67.98,-3.58 -21.42,-3.83 -36.24,-8.92 -55.41,-18.39 -10.04,-4.96 -25.24,-10.3 -24.12,-24.91 1.25,-16.34 -2.91,-29.21 -2.87,-45.36 0.02,-8.17 -0.56,-15.66 -0.56,-24.04 -0,-7.92 0.29,-16.03 0.54,-24.05 0.44,-13.88 2.91,-59.35 2.19,-71.55 -1.42,-23.77 -1.6,-48.05 -1.61,-72.11 -0,-8.65 0.57,-61.27 15.68,-57.11 11.77,3.24 36.02,21.58 44.83,29.03 4.65,3.93 10.25,5.91 15.02,9.59 8.35,6.44 4.8,10.52 8.6,15.99 1.43,-4.75 0.32,-10.5 3.49,-13.28 2.22,-1.94 10.04,-2.65 13.99,-3.36l31.98 -2.67 59.16 -1.24c1.78,-0.21 5.2,-0.54 6.84,-1.52 -9.71,-0.13 -63.68,-2.07 -68.03,-1.5 -15.75,2.04 -13.56,-1.66 -37.87,2.9 -17.25,3.23 -29.84,-9.87 -38.87,-16.55 -5.57,-4.12 -11.05,-7.7 -16.88,-11.07 -4.97,-2.88 -12.25,-5.39 -16.1,-9.71 -0.81,-0.9 -0.1,0.16 -0.84,-1.12 17.4,-2.33 43.37,-0.95 61.65,-2.76 9.83,-0.98 20.57,-1.05 30.85,-1.02 5.64,0.01 9.32,0.89 15.27,0.25 6.12,-0.66 42.28,-1.96 46.56,-1.11 11.62,2.31 39.11,22.47 48.85,31.06 13.38,11.8 8.86,5.47 9.18,38.01 0.29,29.88 3.3,35.22 -29.29,34.63 -10.87,-0.2 -20.22,0.54 -30.69,1.21 -9.8,0.63 -20.1,-0.86 -30.27,-0.6 -15.57,0.41 -31.17,1.27 -46.89,-0.17 -7.1,-0.65 -7.1,-0.31 -8.19,-7.37 -0.49,-3.18 -2.8,-28.4 -2.87,-28.55 -2.25,-0.01 -1.59,-0.24 -2.46,2.44 -1.83,5.64 -1.47,15.31 -1.13,21.34 0.18,3.22 0.68,4.85 0.59,8.32 -13.1,-1.67 -33.98,-25.94 -34.63,-2.78 -0.15,5.27 -0.38,13.67 0.45,18.47 3.95,-3.29 0.35,-22.31 7.39,-22.36 4.41,1.45 3.27,3.91 3.35,8.96 0.07,3.97 0.57,7.48 0.56,11.72 -0.01,5.79 -2.11,19.36 0.52,21.62 1.85,-3.07 0.71,-36.57 1.72,-38.46 1.82,-0.94 4.01,0.06 4.9,1.34 2.2,3.15 -0.27,36.05 0.66,44.07 0.33,2.9 -0.24,1.43 1.17,2.18l1.62 -43.6c3,1.09 2.04,2.09 2.1,5.57 0.04,2.65 0.21,5.16 0.17,7.86 -0.1,5.43 -2.53,38.93 0.69,42.48 -0.24,-6.37 0.39,-50.65 1.51,-53.11 4.98,1.05 1.79,14.44 1.71,17.86 -0.1,3.91 -0.39,18.28 0.35,21.11 4.8,-9.37 -0.14,-33.38 3.02,-36.18 2.95,1.08 2.07,6.53 2.27,10.07 0.14,2.57 0.37,8.15 1.09,9.59l2 -16.54c1.77,-0.43 9.14,1.63 14.19,1.8 2.69,0.09 5.77,-0.05 8.39,0.15 2.46,0.18 4.22,0.97 6.75,1.08 4.3,0.19 4.55,-0.88 4.5,3.87 -0.14,11.62 -1.53,15.69 -1.73,22.95 -0.07,2.37 -0.97,14.89 -0.83,15.36 1.31,4.64 5.03,1.6 3.9,11.7 -0.59,5.26 0.76,9.41 4.26,11.48 1.83,1.08 3.94,1.71 6.17,2.24 2.95,0.71 4.25,0.19 5.56,2.42 1.56,2.66 0.14,10.01 0.69,13.69 0.77,5.05 4.98,5.13 9.31,5.22 15.79,0.35 7.25,-10.18 10.4,-18.15 1.54,-1.24 6.94,-2.26 9.58,-3.29 5.16,-2.02 3.01,-3.76 4.39,-8.45 1.14,-0.64 4.18,-1.56 6.16,-0.65 1.9,0.88 1.34,3.55 1.1,5.55 -0.55,4.59 -0.24,9.18 -0.31,13.8 -0.07,4.52 -0.57,8.68 -0.56,13.4 0.01,3.52 0.73,9.69 -1.68,12.3 -0,-4.77 0.29,-38.31 -0.56,-39.45 -1.22,1.84 -2.8,73.76 -2.8,81.44 3.2,-3.01 0.91,-11.82 2.67,-16.21 0.74,0.93 0.1,-0.26 0.53,1.21 2.83,9.55 -4.52,16.2 5.59,17.36 5.92,0.68 15.98,2.24 20.67,4.65 0,0 0.96,1.24 2.95,1.32zm-30.41 -220.92c5.22,3.18 19.75,-0.09 25.68,-0.74l-25.68 0.74zm-124.97 253.3c2.56,3.26 9.21,6.27 14.19,6.99l-1.54 -1.78c-2.17,-1.75 -10.23,-4.87 -12.65,-5.21zm164.47 -250.55c2.8,1.32 8.21,0.89 11.47,0.03 1.99,-0.52 1.87,-0.17 2.92,-1.56 -5.71,-0.06 -9.34,-1.54 -14.39,1.53zm-37.34 224.73c0.6,2.57 10.23,0.97 12.03,0.85 4.69,-0.3 8.83,-0.67 13.31,-0.97 -3.88,-0.38 -8.8,-0.37 -12.74,-0.37 -2.24,0 -4.47,0.01 -6.71,0 -1.05,-0 -2.38,-0.08 -3.39,-0.04l-2.5 0.52zm-11.4 -47.89c0.07,-0.12 0.16,-0.27 0.19,-0.36 1.2,-3.71 1.35,-23.45 0.66,-28.07 -1.51,4.98 -1.03,22.07 -0.85,28.43zm-106.82 -205.2c3.7,0 8.94,0.77 11.91,-1.68 -1.04,-0.69 0.79,0.1 -1.13,-0.67 -2.4,-0.96 -6.3,-1.45 -9.05,-0.41 -1.6,0.6 -1.63,0.62 -1.72,2.76zm84.88 28.1c7.26,0.33 16.89,1.17 23.32,-1.01 -3.6,-1.45 -12.89,-0.59 -17.64,-0.21 -1.09,0.09 -1.98,0.28 -2.87,0.41l-2.82 0.82zm-48.86 181.86c-1.39,3.41 -3.62,17.03 0.32,19.96 0.41,-6.47 1.13,-13.34 -0.32,-19.96zm75.23 -3.16c2.77,-4.38 1.12,-18.17 1.12,-24.08 -1.45,1.74 -1.04,2.46 -1.45,5.31l-0.25 16.62c0.05,0.79 0.07,0.74 0.23,1.44l0.36 0.71zm-114.66 60.97c3.19,4.17 20.91,12.01 28.29,12.87 -2.06,-1.53 -4.73,-2.29 -7.46,-3.44 -2.2,-0.93 -4.72,-1.86 -7.07,-3.02l-13.77 -6.41zm151.56 -231.43c5.58,0 16.47,-1.62 20.48,-3.72l-30 2.73c2.8,1.39 5.87,0.99 9.52,0.99zm-150.96 252.15c7.03,4.11 18.08,7.8 26.54,7.8l-3.79 -1.5c-1.37,-0.38 -2.21,-0.63 -3.5,-1l-20.9 -6.66 1.64 1.35zm15.37 -0.33c6.93,3.55 13.64,7.23 23.75,6.97 -3.44,-2.33 -20.77,-7.34 -23.75,-6.97zm-11.3 7.15c3.74,3.89 17.67,8.62 27.05,7.48l-13.78 -3.73c-4.55,-1.32 -8.59,-2.67 -13.26,-3.75zm27.58 -91.59c-2.74,5.28 1.28,4.6 -1.14,13.48 -0.56,2.07 -0.67,12.47 1.37,13.69 1.73,-1 1.4,-4.61 1.34,-6.71l-1.57 -20.45zm111.45 -159c0.89,1.62 0.13,1.04 2.77,1.23l26.37 -1 0.03 -2.12c-2.67,-0.87 -5.64,0.02 -8.71,0.5l-20.46 1.39zm-22.73 237.87c6.01,0.14 16.68,-1.41 22.68,-2.59 4.34,-0.85 15.11,-3.37 19.07,-5.56l-41.75 8.15zm-111.77 -156.48c1.83,-4.43 2.51,-37.76 0.52,-42.09 -0.73,6.18 -0.15,14.51 -0.56,21.06 -0.28,4.52 -0.67,17.02 0.03,21.03zm-12.5 147.09c1.97,3.42 13.73,8.27 17.28,9.7 2.69,1.09 17.04,6.34 20.03,5.16 -2.02,-1.15 -7.75,-2.67 -10.05,-3.4 -6.81,-2.17 -12.01,-4.45 -18.43,-7.23 -3.09,-1.34 -5.86,-3.15 -8.83,-4.23zm145.63 -202.76c6.37,0.33 10.59,0.87 17.17,0.13 3.65,-0.41 8.04,-0.81 11.53,-1.9l2.96 -1.65c-5.58,0.22 -10.34,1.16 -16.3,1.17 -3.19,0.01 -12.41,0.52 -15.36,2.25zm-151.78 185.48c3.47,5.87 25.09,17.12 31.31,17.45 -1.6,-1.77 -12.98,-7.18 -15.98,-8.65l-15.33 -8.79zm143.17 -181.36c9.61,2.96 32.54,-1.29 40.19,-1.33l0.01 -1.62 -40.2 2.95zm-112.92 236.76c-2.63,-0.6 -17.14,-5.06 -18.51,-4.64 0.77,1.29 -2.02,0.76 3.72,2.66l13.99 3.91c5.94,1.29 14.33,2.77 20.38,3.02 -5.4,-2.07 -13.39,-3.52 -19.59,-4.94zm46.04 -27.63c11.98,3.61 32.28,3.63 44.34,0.16 -1.18,-0.52 -18.72,0.69 -22.24,0.69 -4.24,0 -19.48,-1.3 -22.1,-0.85zm-68.9 31.16c7.18,5.57 28.19,9.88 39.18,10.74l4.3 -0.22c0.88,-0.28 0.66,-0.27 1.1,-0.56 -11.78,-0.17 -27.84,-5.4 -39.38,-8.67 -1.78,-0.51 -3.55,-0.77 -5.2,-1.29zm125.1 -271.81c6.52,-0.26 37.7,-1.73 40.05,-3.91 -1.17,-1.58 -1.24,-0.78 -4.26,-0.59 -8.56,0.55 -25.01,2.65 -31.89,2.81 -5.07,0.12 -3.58,0.68 -3.9,1.69zm-125.22 174.42c0.27,8 -2.67,10.63 1.02,15.52l-0.02 -49.5c-2.08,3.83 -2.11,10.74 -2.24,15.54l1.25 18.44zm-3.26 81.16c3.2,2.33 13.43,6.41 17.81,7.71 7.65,2.26 12.6,2.8 21.85,2.14 -1.28,-0.55 -8.88,-1.65 -10.78,-2.04l-28.89 -7.81zm172.57 -220.44c5.5,-0.51 5.08,-0.12 6.1,-1.59 -1.48,-0.71 -48.31,1.78 -50.08,2.61l20.58 0.74 23.4 -1.77zm-130.56 241.03c-11.81,0 -24.49,-4.74 -35.38,-7.82 -3.46,-0.98 -8.95,-3.25 -11.01,-2.15 3.13,1.17 5.02,2.54 8.87,3.7 3.23,0.97 6.45,1.76 9.74,2.57 3.32,0.82 6.66,1.57 9.71,2.59 5.45,1.82 11.59,4.44 16.98,1.84 0.72,-0.35 0.71,-0.41 1.08,-0.72zm79.21 -287.9c2.42,4.46 37,-0.48 39.49,-2.24 -1.75,-1.26 -34.35,2 -39.49,2.24zm-0.82 280.62c8.7,0.03 19.56,-3.23 26.37,-5.76 2.31,-0.85 19.48,-7.94 21.62,-9.88 -3.63,0.53 -8.31,2.93 -12.05,4.35l-35.94 11.3zm-1.97 -20.67c4.92,2.8 48.82,-7.06 53.63,-12.82 -2.23,0.39 -3.82,1.28 -6.27,2.02l-19.92 5.28c-3.56,0.75 -26.29,4.85 -27.44,5.52zm-13.42 32.98c8.34,0.7 27.26,-4.2 35.5,-6.42 5.54,-1.49 10.99,-3.27 16.3,-4.96 4.68,-1.49 12.1,-3.23 14.08,-6.42 -2.96,0.98 -5.56,2.11 -8.44,3.13 -3.12,1.11 -5.61,1.9 -8.81,2.93 -16.35,5.27 -30.56,8.66 -48.07,10l-9.83 0.81c-0.06,-0.11 -0.23,0.16 -0.33,0.21l9.61 0.72zm2.48 -5.83c11.77,2.84 59.07,-11.46 65.64,-18.73l-15.33 5.78c-13.48,5.2 -27.22,9.02 -41.57,11.55 -1.98,0.35 -6.97,0.78 -8.73,1.39zm-102.54 -216.45c-1.53,3.47 -3.12,66.73 -0.04,71.86 0.31,-12.01 0.6,-23.66 0.6,-35.74 0,-12.21 -0.56,-24.22 -0.56,-36.12zm9.89 69.28c-3.52,5.68 -0.39,40.46 -1.05,46.69 -0.29,2.77 -2.85,11.61 1,12.72 1.44,-1.62 0.8,-2.68 0.79,-7.04 -0.01,-2.75 -0.12,-5.1 -0.25,-7.83 -0.21,-4.5 0.25,-10.34 0.25,-15.09 0,-9.83 0.47,-19.94 -0.73,-29.46zm100.23 127.84c5.82,1.22 10.86,-0.67 16.81,-1.63 18.2,-2.91 19.86,-7.02 29.44,-8.59 2.85,-0.47 5.31,-0.65 7.8,-1.7 2.74,-1.14 4.23,-2.3 5.21,-4.62 -5.32,1.41 -9.84,3.19 -14.59,4.74 -4.69,1.53 -9.09,3.07 -14.39,4.61 -6.37,1.86 -16,4.52 -23.03,5.5 -3.23,0.45 -5.91,0.29 -7.25,1.69zm-82.05 -67.08c1.22,-3.04 0.52,-9.68 0.03,-13.01 -0.88,-5.98 -0.43,-7.14 -0.14,-12.71 0.24,-4.63 0.21,-8.16 -0.03,-12.86l-1.11 -9.48c-0.36,-1.95 0.15,-1.09 -1.11,-2.43 -0.15,4.21 -1.06,8.78 -0.8,13.6 0.24,4.4 0.65,9.2 0.8,13.39 0.35,10.08 -1.74,15.48 -0.52,19.55 1.22,4.07 1.31,3.6 2.88,3.95zm-8.51 -61.49c-1.52,0.79 -1.05,0.62 -1.13,3.29 -0.29,9.8 1.28,56.18 2.24,58.2 1.85,-0.2 1.87,0.28 2.24,-2.24 0.43,-2.96 -0.41,-8.76 -0.83,-11.46 -0.82,-5.33 -0.29,-11.01 -0.29,-16.49 -0,-13.94 -2.24,-22.13 -2.24,-31.31zm27.06 91.96c5.68,0.31 17.53,-0.07 23.53,-0.52l69.62 -2.93c-7.59,-0.87 -16.3,-0.91 -24.06,-0.69 -27.66,0.78 -41.81,0.59 -69.08,4.14zm-23.26 -264.03c28.73,0.98 58.59,-1.54 87.07,-2.4 -4.73,-1.99 -36.03,0.07 -43.91,0.21 -7.35,0.13 -14.96,-0.14 -22.36,-0.15 -3.25,-0 -17.75,0.31 -20.8,2.34zm10.21 19.84c14.59,-1.46 32.52,-2.64 47.49,-2.62l49.53 -0.82c-8.85,-2.27 -39.53,-1.88 -49.55,-1 -4.26,0.37 -8.19,-0.07 -12.52,0.46 -12.1,1.48 -21.31,0.1 -34.95,3.97zm-8.56 -7.18c14.32,0.71 78.11,0.33 87.21,-3.59 -6.35,-0.75 -85.02,2.63 -87.21,3.59zm72.53 295.81c1.89,0.9 9.64,0.65 11.48,0.53 3.22,-0.2 6.91,-0.7 10.03,-1.11 21.76,-2.88 23.12,-7.44 34.71,-11.13 4.81,-1.53 14.11,-1.75 15.07,-7.52l-16.82 6.33c-10.63,3.9 -23.28,7.95 -34.56,10.17l-19.92 2.73zm-84.51 -164.18c-0.62,5.06 -0.39,40.35 0.09,45.8 1.38,15.7 -0.39,28.9 0.85,39.56 0.28,2.42 0.17,3 1.69,3.91 1.5,-1.6 1.2,-2.09 1.13,-5.01 -0.24,-10.93 0.28,-5.68 -1.5,-16.42 -0.69,-4.15 0.29,-7.57 0.37,-11.54 0.2,-9.9 -0.78,-52.39 -2.63,-56.31zm-8.25 -10.65c-1.94,7.37 -1.36,40.48 -0.97,49.59l-0.07 50.62c0.02,-0.07 0.1,0.3 0.17,0.43 1.84,-0.88 0.56,1.33 1.27,-2.34l0.97 -21.86c0.06,-11.86 -0.08,-68.38 -1.37,-76.45zm9.3 -125.92c1.53,0.92 56.99,-2.65 69.75,-3.33 8.11,-0.43 15.91,-0.54 24,-1.29 -4.77,-2.08 -17.22,-1.48 -23.16,-0.71 -8.6,1.11 -16.2,0.31 -24.87,0.29 -8.53,-0.03 -15.8,2.23 -23.46,2.26 -5.64,0.02 -20.04,-1.97 -22.27,2.78zm-26.41 -18.11c14.33,0.62 66.73,-0 79.67,-1.76 7.82,-1.06 17.63,-0.53 24.99,-2.3 -16.76,-0.99 -36.31,0.96 -53.21,0.93 -7.14,-0.02 -46.18,1.67 -51.45,3.13zm9.32 4.81c5.32,2.17 119.21,-2.05 125.37,-4.4l-63.12 1.49c-20.81,-0.01 -42.04,1.75 -62.26,2.91zm103.98 232.65c-3.3,1.08 -17.01,0.14 -23.13,0.46 6.33,3.44 14.83,2.33 23,3.58 -3.95,-0.03 -0.59,1.15 -11.99,0.29 -4.98,-0.37 -8.51,-1.18 -12.75,-1.63 4.98,2.93 14.26,5.12 21.53,5.73 -7.02,1.15 -14.13,-0.91 -16.59,-0.84 -2.92,0.09 -1.39,0.02 -2.22,0.58 1.9,0.33 8.33,2.8 9.5,3.85 -4.77,0.17 -4.35,0.01 -9.48,-0.64 2.52,3.12 5.98,1.61 8.67,3.73 -1.9,0.67 -6.71,-0.7 -9.25,-0.94 1.17,1.39 2.48,2.02 4.11,2.76 1.93,0.88 3.39,1.34 5.93,1.43 8.24,0.3 13.93,-5.3 16.95,-11.71 0.83,-1.76 1.37,-3.32 1.88,-5.38 2.71,-10.81 -0.1,-3.72 -18.81,-3.72l-10.79 -0.94c-2.71,-0.52 -5.15,-1.71 -7.66,-1.86 2.28,4.37 27.43,4.79 31.1,5.24zm-37.25 -163.44c0,-15.17 18.8,-11.69 15.2,0.65 -0.99,3.41 -4.38,9.97 -7.94,9.97 -8.09,0 -7.27,-5.19 -7.27,-10.62zm-6.13 0.98c-1.53,-3.23 -0.63,-10.15 1.02,-12.8 2.14,-3.45 7.61,-6.83 11.85,-5 2.1,0.91 1.1,0.21 1.81,1.72 -10.51,0.44 -12.84,13.36 -14.67,16.08zm25.7 -0.43c1.02,-7.6 1.08,-9.77 -2.86,-14.5 -7.24,-8.68 -14.51,-12.47 -23.29,-3.83 -2.86,2.81 -4.34,7.33 -5.86,12.02 -3.74,11.54 3.83,19.34 12.42,21.99 11.06,3.4 18.45,-7.23 19.59,-15.67zm-36.34 173.58c-2.15,-0.32 -16.04,0.18 -19.59,0.27 -6.07,0.17 -13.01,0.95 -18.99,1.13 -17.34,0.5 -13.38,9.58 -13.99,-22.92 -0.24,-12.96 -1.05,-26.67 -0.49,-39.7 0.26,-6.12 1.98,-34.76 1.22,-38.01 -2.86,2.37 -4.52,36.55 -4.65,40.27 -0.5,14.94 0.07,29.33 -0.23,44.14 -0.07,3.49 -0.28,19.1 0.71,21.32 1.33,2.98 5.15,2.38 8.72,1.84l31.6 -1.91c8.78,-0.39 13.35,1.16 15.68,-6.44zm22.8 7.14c6.17,1.06 8.32,5.15 15.12,6.12 7.14,1.01 11.85,-1.85 16.87,-3.48 2.86,-0.93 6.69,-0.67 9.67,-0.17 2.47,0.42 6.11,0.84 7.11,3.52 -3.6,4.81 -26.24,3.93 -34.08,3.5 -6.7,-0.37 -11.93,-0.55 -18.39,-1.35 -5.4,-0.67 -12.69,-1.36 -14.05,-5.16 2.95,-2.63 12.4,-3.91 17.76,-2.99zm39.9 -24.32c0.91,2.82 0.19,27.79 -22.45,26.4 -6.66,-0.41 -13.01,-4.84 -16.17,-8.94 -4.78,-6.2 -6.07,-8.26 -5.54,-18.93 3.78,-0.49 7.71,0.93 11.07,1.62 3.77,0.77 6.81,0.91 10.94,1.39 11.26,1.3 18,-3.05 22.16,-1.54zm-45.09 16.62c-4.15,0.58 -7.76,-2.79 -9.12,-5.95 -2.33,-5.42 -0.86,-7.65 1.06,-12.17 6.61,-0.47 5.54,2.2 5.54,7.22 0,5.55 1.71,7.13 2.51,10.9zm3.44 -21.52c4,-7.85 33.78,-3.74 38.33,1.68 -6.35,-0.05 -11.52,-2.54 -18.57,-2.52 -6.61,0.01 -13.4,0.85 -19.77,0.85zm40.19 28.21c-0.54,-2.1 0.41,-2.64 1.56,-4.54 2.61,-4.33 3.53,-10.2 4.16,-15.41 1.25,-10.3 -3.71,-12.18 -11.53,-13.95 -7.47,-1.69 -13.95,-2.76 -22.49,-2.24 -4.41,0.27 -7.53,0.17 -11.07,1.84 -5.49,2.59 -5.3,5.18 -7.33,5.53 -1.36,0.24 -13.31,-2.75 -11.27,13.99 1.24,10.17 8.31,8.96 11.27,13.41 -14.92,7.35 -51.29,4.91 -59.6,8.17 4.11,0.66 32.06,-1.4 38.34,-1.47 4.64,-0.06 9.75,-1.39 10.81,2.8 -5.37,0.08 -31.55,1.25 -35.33,2.61 7.08,0.89 43.35,-0.75 45.8,0.8 -4.52,2.13 -24.86,2.21 -32.12,3.64 0.6,0.47 0.26,0.34 1.27,0.79 2.36,1.05 19.85,-0.64 22.07,-0.92l24.4 -1.3c15.59,-0.57 33.98,2.41 44.74,-5.03 0,-4.29 -1.76,-4.44 -5.17,-6.03 -2.72,-1.27 -6.53,-1.55 -8.5,-2.68zm71.44 26.82l0 0c0,0 1.85,-9.96 -14.14,-22.62 0,0 -4.38,-3.35 -21.76,-7.7 -2.4,-0.7 -4.75,-1.42 -7.35,-1.79 -14.96,-2.13 -8.88,-6.18 -8.94,-31.3l2.24 -54.22c7.28,-3.53 5.37,2.1 11.28,3.25 6.93,1.36 23.22,2.41 29.7,-0.28 1.66,-0.69 3.7,-2.01 5.33,-3.1 1.84,-1.24 2.79,-2.09 2.88,-5.01 -6.05,-5.79 -9.57,-8.32 -21.79,-8.3 -5.36,0.01 -9.25,-0.1 -13.94,1.19 -1.93,0.53 -9.63,4.34 -11.22,2.78 -1.54,-2.7 0.39,-21.9 0.91,-25.94 0.74,-5.73 0.4,-22.43 1.66,-26.09 2.44,0.72 2.19,1.05 1.87,4.43 -0.44,4.59 -2.12,13.16 0.83,16.6 3.25,3.79 15.55,1.95 21.48,2.62 2.95,2.91 0.89,3.58 7.34,3.79 10,0.33 20.77,-0.12 30.75,-0.58 15.12,-0.7 31.29,5.36 30.2,-12.87 -0.5,-8.29 -4.75,-9.93 -12.3,-9.46 -6.65,0.41 -13.06,-0.15 -19.84,0.2 -9.61,0.51 -22.16,0.32 -31.08,1.34 -4.35,0.5 -3.93,2.12 -6.11,4.57 -2.87,0 -5.7,-0.2 -8.08,-0.86 -2.3,-1.72 -2.9,-6.56 -1.58,-9.35 2.47,-2.95 11.14,-1.3 15.82,-1.51 4.31,-0.19 9.6,-1.91 13.52,-3.23 4.37,-1.47 9.21,-2.1 9.41,-7.93 0.38,-11.03 -1.01,-22.92 0.17,-33.88 0.65,-6.07 -0.15,-10.09 -0.05,-15.91 0.28,-16.4 -2.82,-15.08 -12.43,-21.84 -9.42,-6.63 -20.25,-16.14 -30.43,-21 -11.95,-5.71 -12.79,-10.17 -23.8,-10.27 -5.41,-0.05 -10.51,-0.55 -16.22,-0.55 -25.47,0 -109,1.33 -131.7,4.19 -23.56,2.97 -26.86,17.43 -29.64,38.51 -3.46,26.27 -2.06,72.53 -0.72,98.75 1.11,21.59 -1.13,44.24 -1.19,65.95 -0.03,10.56 0.15,23.06 -0.7,33.42 -1.74,21.2 0.59,44.27 1.92,65.54 1.09,17.43 -1.54,15.46 9.86,24.12 3.44,2.61 6.14,5.16 9.85,7.49 10.74,6.74 22.93,11.49 35.8,14.49 9.22,2.15 17.78,4.81 27.55,6.58 9.53,1.73 21.85,0.99 31.75,2.32 21.23,2.87 43.5,1.06 63.22,-2.1 12.56,-2.01 40.6,-11.26 49.96,-18.22 6.37,-4.73 9.49,-12.92 10.05,-24.07 0.35,-7.11 0.59,-14.9 -0.36,-22.12zm-31.51 -127.33c3.64,-0.77 28.12,-3.31 24.3,7.65 -1.89,5.41 -24.23,2.94 -28.3,2.15 -3.62,-0.71 -5.45,-1.77 -4.04,-6.46 1.17,-3.89 4.28,-2.55 8.04,-3.34zm-44.71 4.65c1.22,-1.14 0.75,-0.69 2.59,-1.33 5.45,-1.9 4.13,-0.48 7.04,0.1 1.23,0.24 1.96,0.16 3.2,0.15 2.25,-0.03 4.48,-0.04 6.73,-0.03 2.42,0 4.85,0.06 7.27,-0.07 2.76,-0.14 5.31,-0.69 5.81,0.96 -0.25,2.49 -3.51,1.93 -6.37,1.91 -23.28,-0.19 -18.97,2.55 -24.19,2.79 -1.53,-2.21 -2.03,-1.33 -2.1,-4.47zm-3.6 1.94c1.57,4.53 -0.09,5.29 8.99,7.21 -7.76,4.7 -25.22,4.06 -33.07,0.07 -3.9,-1.98 -5.86,-6.06 -5.86,-10.9 0,-1.35 0.21,-1.93 0.56,-2.79 3.64,0.24 2.73,2.2 2.79,9.5 2.34,-3.25 -0.01,-5.41 2.79,-8.39 0.4,1.17 0.69,2.63 0.89,4.08 0.39,2.81 -0.41,2.35 1.34,3.19 0,-4.24 -0.94,-5.71 3.35,-5.59 0,2.65 -0.5,3.07 1.12,4.47 0.47,-5.7 4.84,-3.69 11.76,-3.38 3.12,0.14 4.41,-0.12 5.33,2.52zm39.38 -46.1c0,-2.34 0.05,-12.86 3.4,-12.76 4.07,0.12 -0.59,10.82 2.93,13.18 1.74,1.52 2.1,0.33 4.3,0.26 1.48,-0.04 2.51,0.34 4.49,0.4 1.58,0.04 5.93,-1.27 2.81,5.63 -3.11,0.33 -7.85,-0.02 -11.24,0.02 -6.95,0.07 -6.69,-1.02 -6.69,-6.72zm82.03 -2.65c0.96,3.4 1.05,4.55 0.79,8.26 -0.28,4.01 -1.13,4.02 -5.14,4.44 -6.75,0.7 -11.14,0.02 -17.87,0.01 -5.8,-0.01 -32.76,2.87 -34.71,1.21 -1.42,-1.2 -4.27,-12.28 2.58,-13.78 5.07,-1.11 12.54,0.52 18.13,0.2 11.18,-0.65 24.92,-1.53 36.22,-0.34zm-104.39 42.34c4.06,-6.49 3.03,0.18 3.35,-12.89 0.11,-4.59 1.04,-9.93 1.12,-14.51 0.08,-4.67 0.97,-10.01 1.11,-14.52 0.19,-6 -0.11,-9.48 6.69,-8.92 0.13,10.73 -1.87,18.13 -2.2,27.36 -0.19,5.23 -1.14,20.37 -2.82,23.59l-7.25 -0.12zm-36.68 -10.84c1.51,-3.38 2.3,-15.82 2.56,-20.48 1.27,-22.73 -1.92,-19 18.47,-19 4.49,0 1.96,9.96 3.83,13.27 2.72,-4 -0.7,-11.53 2.96,-13.22 1.17,2.53 0.5,19.16 0.47,24.55 -0.04,7.37 -0.6,5.99 1.26,6.67 1.31,-3.17 0.42,-24.75 0.42,-30.22 2.54,0.29 1.59,0.45 1.84,3.86 1.03,14.44 -0.34,21.42 -0.1,34.28 3.59,-5.33 2.17,-23.66 2.17,-31.92 0,-3.27 -0.43,-8.44 3.35,-6.83 1.69,1.52 -0.62,32.23 -0.76,33.55 -0.67,6.22 0.85,10.63 -5.19,12.58 -11.56,3.73 -26.41,3.77 -37.61,-0.78 -5.19,-2.11 -8.04,-3.68 -7.44,-10.65 0.82,-9.43 2.4,-20.95 2.86,-30.71 0.12,-2.53 -0.55,-2.37 1.18,-3.32 2.99,-0.36 1.28,6.64 1.11,11.76 -0.13,3.94 -1.11,9.07 -1.11,12.84 0,3.71 0.8,5.37 0.28,8.67 -0.46,2.9 -0.99,3.86 0.1,6.25 2.17,-3.15 1.42,-16.22 2.1,-21.36 0.41,-3.14 0.76,-7.76 0.87,-10.89 0.21,-5.8 0.12,-7.56 3.36,-7.83 -2.28,14.25 -0.69,27.41 -1.93,41.71 1.2,-1.13 1.78,-2.5 1.86,-4.31 0.2,-5.08 -1.53,-1.75 0.57,-15.66l1.28 -15.5c0.31,-3.09 -0.41,-5.71 2.79,-5.67 -0.34,6.85 -2.09,33.62 -1.56,38.35z"/>
 </g>
</svg>
