<?xml version="1.0" encoding="UTF-8"?>
<!DOCTYPE svg PUBLIC "-//W3C//DTD SVG 1.1//EN" "http://www.w3.org/Graphics/SVG/1.1/DTD/svg11.dtd">
<!-- Creator: CorelDRAW 2018 (64-Bit) -->
<svg xmlns="http://www.w3.org/2000/svg" xml:space="preserve" width="17.0465mm" height="13.7051mm" version="1.1" style="shape-rendering:geometricPrecision; text-rendering:geometricPrecision; image-rendering:optimizeQuality; fill-rule:evenodd; clip-rule:evenodd"
viewBox="0 0 55.75 44.82"
 xmlns:xlink="http://www.w3.org/1999/xlink">
 <defs>
  <style type="text/css">
   <![CDATA[
    .fil3 {fill:#64748B}
    .fil0 {fill:#D97706}
    .fil1 {fill:white}
    .fil2 {fill:#64748B;fill-rule:nonzero}
   ]]>
  </style>
 </defs>
 <g id="Layer_x0020_1">
  <metadata id="CorelCorpID_0Corel-Layer"/>
  <g id="_2779286816160">
   <circle class="fil0" cx="33.34" cy="22.41" r="22.41"/>
   <path class="fil1" d="M10.42 8.48l27.81 0c5.28,0 9.6,4.32 9.6,9.6l0 0c0,5.28 -4.32,9.6 -9.6,9.6l-22.95 0 -6.11 4.95 0 -5.03c-4.69,-0.62 -8.35,-4.66 -8.35,-9.52l0 -0c0,-5.28 4.32,-9.6 9.6,-9.6z"/>
   <path class="fil2" d="M10.42 7.66l27.81 0c2.87,0 5.47,1.17 7.36,3.06 1.89,1.89 3.06,4.49 3.06,7.36 0,2.87 -1.17,5.47 -3.06,7.36 -1.89,1.89 -4.49,3.06 -7.36,3.06l-22.66 0 -7.22 5.84 0 -6.05c-2.27,-0.46 -4.28,-1.67 -5.76,-3.35 -1.61,-1.84 -2.59,-4.24 -2.59,-6.85 0,-2.87 1.17,-5.47 3.06,-7.36 1.89,-1.89 4.49,-3.06 7.36,-3.06zm27.81 1.64l-27.81 0c-2.41,0 -4.61,0.99 -6.2,2.58 -1.59,1.59 -2.58,3.79 -2.58,6.2 0,2.21 0.82,4.23 2.18,5.78 1.37,1.57 3.3,2.65 5.46,2.93l0.71 0.09 0 4.03 4.78 -3.87 0.51 -0.18 22.95 0c2.41,0 4.61,-0.99 6.2,-2.58 1.59,-1.59 2.58,-3.79 2.58,-6.2 0,-2.41 -0.99,-4.61 -2.58,-6.2 -1.59,-1.59 -3.79,-2.58 -6.2,-2.58z"/>
   <path class="fil2" d="M4.36 17.55c-0.03,0.45 -0.42,0.79 -0.87,0.76 -0.45,-0.03 -0.79,-0.42 -0.76,-0.87 0,-0.02 0.26,-5.92 6.76,-7.12l0.05 -0.01c0,0 0.95,-0.14 3.01,-0 0.45,0.03 0.79,0.42 0.76,0.87 -0.03,0.45 -0.42,0.79 -0.87,0.76 -1.88,-0.12 -2.7,-0 -2.71,-0 -5.18,0.98 -5.37,5.6 -5.38,5.61z"/>
   <path class="fil3" d="M16.31 16.94c0.62,0 1.12,0.5 1.12,1.12 0,0.62 -0.5,1.12 -1.12,1.12 -0.62,0 -1.12,-0.5 -1.12,-1.12 0,-0.62 0.5,-1.12 1.12,-1.12zm15.94 0c0.62,0 1.12,0.5 1.12,1.12 0,0.62 -0.5,1.12 -1.12,1.12 -0.62,0 -1.12,-0.5 -1.12,-1.12 0,-0.62 0.5,-1.12 1.12,-1.12zm-5.31 0c0.62,0 1.12,0.5 1.12,1.12 0,0.62 -0.5,1.12 -1.12,1.12 -0.62,0 -1.12,-0.5 -1.12,-1.12 0,-0.62 0.5,-1.12 1.12,-1.12zm-5.31 0c0.62,0 1.12,0.5 1.12,1.12 0,0.62 -0.5,1.12 -1.12,1.12 -0.62,0 -1.12,-0.5 -1.12,-1.12 0,-0.62 0.5,-1.12 1.12,-1.12z"/>
  </g>
 </g>
</svg>
