<?xml version="1.0" encoding="UTF-8"?>
<!DOCTYPE svg PUBLIC "-//W3C//DTD SVG 1.1//EN" "http://www.w3.org/Graphics/SVG/1.1/DTD/svg11.dtd">
<!-- Creator: CorelDRAW 2018 (64-Bit) -->
<svg xmlns="http://www.w3.org/2000/svg" xml:space="preserve" width="41.7942mm" height="74.846mm" version="1.1" style="shape-rendering:geometricPrecision; text-rendering:geometricPrecision; image-rendering:optimizeQuality; fill-rule:evenodd; clip-rule:evenodd"
viewBox="0 0 1081.97 1937.62"
 xmlns:xlink="http://www.w3.org/1999/xlink">
 <defs>
  <style type="text/css">
   <![CDATA[
    .fil0 {fill:black}
   ]]>
  </style>
 </defs>
 <g id="Layer_x0020_1">
  <metadata id="CorelCorpID_0Corel-Layer"/>
  <path class="fil0" d="M834.04 974.75c22.63,11.28 133.71,-20.12 166.26,-23.43 0.16,31.38 -6.76,30.82 -65.98,39.57 -16.7,2.47 -21.71,-2.16 -25.97,11.72 12.51,14.73 73.07,-7.21 89.87,-10l-0.23 25.69c-14.63,2.89 -23.04,6.99 -38.35,10.18 -15.56,3.25 -27.34,-0.23 -33.76,12.98 14.38,14.65 50.41,-2.97 71.6,-6.31l-2.27 27.64c-12.62,4.26 -37.91,6.62 -45.14,15.92 7,15.67 28.36,4.61 45.94,1.42 0,22.33 3.77,23.38 -17.18,28.36 -16.85,4 -28.23,-0.61 -29.41,16.48 13.12,6.76 30.36,-2.02 44.41,-3.95 0,20.52 4.52,22.92 -14.1,27.69 -16.88,4.32 -28.82,-0.91 -31.49,15.25l10.12 3.68c12.67,1.43 22.45,-5.53 35.12,-5.55l-1.77 23.15c-9.45,1.73 -13.38,4.12 -24.26,6.32 -12.7,2.57 -15.17,0.39 -21.39,8.92 4.63,12.02 5.25,9.8 18.92,7.56 10.49,-1.72 18.22,-4.77 26.13,-7.05l0.43 23.86c-10.66,3.56 -14.02,5.69 -25.8,7.62 -15.36,2.51 -18.97,-1.44 -19.28,13.68 14.24,7.77 30.2,-2.31 44.45,-2.87l-2.39 23.29c-13.62,3.41 -39.08,4.92 -45.07,16.11 6.7,15.88 32.71,3.33 45.62,-0.19l0.36 18.46c-12.48,19.48 -36.37,5.71 -48.2,22.19 10.46,14.53 30.54,3.28 45.28,1.2l0.82 21.34c-9.92,4.7 -14.88,6.85 -26.92,8.97 -12.14,2.14 -22.59,0.7 -17.36,12.66 7.81,10.55 33.33,-0.68 44,-3.28l-1.32 23.01c-12.65,6.28 -35.91,7.24 -45.63,14.39 2.05,20.88 30.6,6.46 44.76,3.72l-0.31 22.52c-23.35,8.6 -42.36,5.39 -45.51,19.42 8.96,12.61 33.18,0.75 45.01,-1.17l-1.49 23.24c-21.57,7.18 -49.11,4.47 -43.59,21.63 12.8,6.43 31.15,-1.54 43.91,-4.99l-0.48 22.19c-12.36,6.96 -44.73,8.95 -46.42,18.7 1.85,14.35 29.97,3.52 44.75,0.62 -0.06,19.05 -1.04,25.82 -22.73,29.73 -14.85,2.67 -20.49,-0.42 -23.16,11.82 9.66,11.73 30.29,2.06 45.84,-1.96l-1.35 23.17c-27.43,9.82 -45.15,4.79 -45.24,21.41 12.85,8.26 30.67,-0.88 44.36,-2.82 0.14,32.45 -5.43,25.41 -31.61,31.09 -14.34,3.11 -8.82,-0.83 -14.37,8.26 7.15,17.13 29.39,4.07 44.9,0.35l-1.45 23.81c-31.74,9.9 -43.46,3.1 -45.65,22.8 16.84,2.5 27.74,-2.2 46.03,-5.18l-0.15 22.21c-7.47,2.78 -17.35,6.32 -25.24,7.75 -16.55,3.01 -19.27,-0.1 -20.72,13.48 11.41,8.42 29.43,0.2 43.34,-3.01l0.43 21.47c-11.07,3.18 -19.23,7.67 -31.87,11.34 -12.06,3.51 -26.48,4.38 -35.84,9.01 5.75,25.13 46.99,2.04 67.86,-3.51 -0.16,23.02 3.54,39.95 -15.94,52.98 -45.24,30.25 -97.27,46.07 -150.87,59.29 -140.66,34.7 -309.62,46.48 -454.37,16.43 -21.75,-4.52 -70.82,-13.76 -77.31,-35.75 -2.43,-8.26 -5.19,-23.79 -5.4,-33.13l51.67 5.95c12.14,0 13.3,-1.36 14.2,-11.99 -7.74,-4.46 -51.16,-4.15 -70.42,-11.77l-4.29 -19.14c12.61,0.93 44.44,8.54 43.84,-11.01 -11.23,-5.95 -20.43,-1.41 -35.26,-3.92 -16.66,-2.82 -13.26,-7.49 -17,-25.45 25.79,2.88 46.79,8.7 43.09,-11.67 -10.43,-3.7 -23.97,-0.65 -35.17,-2.76 -16.18,-3.05 -12.6,-7.27 -16,-24.83 11.78,-0.07 17.58,2.38 28,2.13 16.09,-0.39 15.9,-1.85 16.72,-15.2 -22.8,-3.94 -56.38,8.22 -51.22,-27.72 13.05,2.53 33.06,4.18 43.08,-2.05 -2.3,-17.62 -11.11,-10.96 -29.71,-11.66 -22.14,-0.84 -19.39,-4.01 -22.9,-25.67 13.89,1.45 34.03,3.1 44.04,-1.4l0.04 -10.19 -48.27 -4.55 -3.97 -24.32 44.51 0.59c-1.79,-21.81 -23.51,-11.9 -46.8,-17.02l-6.13 -23.05c14.15,1.97 49.28,8.98 43.21,-10.37 -10.35,-5.4 -19.69,-1.65 -33.46,-3.38 -18.31,-2.3 -15.26,-7.39 -17.26,-25.78 12.05,1.37 47.72,9.6 42.02,-11.07 -27.99,-10.6 -44.35,13.34 -50.8,-28.71 16.58,0.95 42.03,11.11 43.87,-10.01l-47.52 -6.23 -5.26 -24.45c17.07,2.97 42.84,8.66 45.65,-8.64 -21.66,-17.63 -45.59,17.28 -53.26,-30.34 58.49,5.16 57.18,-14.45 23.91,-14.29 -27.55,0.13 -29.09,0.51 -31.51,-26.28 13.5,2.22 32.22,6.01 43.06,-2.42 -0.68,-18.21 -2.92,-8.91 -30.28,-10.83 -20.69,-1.45 -19.36,-7.69 -21.56,-26.2 11.52,1.44 49.45,8.87 43.35,-8.11 -5.1,-4.75 1.14,-1.51 -6.91,-3.84 -9.49,-2.75 -17.7,-0.19 -28.02,-2.02 -16.81,-3 -13.53,-10.17 -17.08,-25.38 13.96,1.41 42.55,9.06 45.2,-8.84 -10.29,-8.16 -31.5,-1.88 -48.21,-9.74l-4.62 -20.91c15.6,0.17 35.45,7.33 44.79,-5.88 -5.49,-14.94 -12.59,-6.17 -31.73,-8.49 -20.73,-2.51 -19.11,-6.62 -20.87,-26.23 13.38,1.67 31.8,4.02 42.97,-1.81 0.05,-34.89 -48.66,16.36 -50.92,-38.65 13.07,2.34 33.33,5.18 43.67,-1.77l0.11 -7.35c-9.03,-6.61 -35.12,-5.06 -48.62,-6.53l-5.08 -27.66 48.56 3.78c18.04,0 20.15,0.89 21.9,-14.17l-73.88 -5.66 -5.02 -25.39 72.23 3.57c13.08,0 17.55,0.09 16.97,-12.96l-93.63 -5.71 -3.54 -25.11c34.44,0.12 158.8,7.82 174.47,-16 -8.58,-15.13 -43.6,0.62 -72.96,0.62 -17.09,0 -89.44,3.15 -100.46,0 -8.36,-5.19 -7.37,-7.05 -7.4,-17.16 38.06,-2.32 79.34,0.5 116.84,1.38 112.58,2.63 247.2,-4.91 355.99,-15.38 148.6,-14.31 285.98,-42.43 429.11,-64.4l0.15 15.79c-19.26,13.32 -99.22,23.03 -127.97,26.92 -16.89,2.28 -36.47,-1.74 -38.43,15.25zm91.94 -255.95c11.79,14.32 42.59,-3.34 43.74,-4.5 -0.74,-18.11 -38.14,-8.83 -43.74,4.5zm-120.05 -569c20.25,-0.16 20.07,-35.93 18.83,-40.04 -15.02,0.33 -12.82,2.04 -17.11,14.97 -2.69,8.13 -6.9,15.2 -1.72,25.07zm-379.27 254.9c6.63,1.99 94.86,-14.54 80.89,-29.14 -6.37,-6.66 -35.36,3.73 -44.93,6.48 -27.49,7.92 -36.39,7.57 -35.97,22.66zm77.21 834.37l-34.56 41.85c-5.58,7.18 -9.54,12.07 -16.21,20.58 -5.53,7.06 -9.64,23.61 6.32,15.66l50.79 -62.46c7.16,-9.06 7.93,-24.95 -6.35,-15.63zm162.58 122.11c-11.77,-4.57 -22.65,14.98 -37.56,33.73 -13.09,16.47 -33.64,36.3 -26.9,43.27 8.84,9.15 16.15,-4.46 20.59,-10.09l41.63 -53.1c7.76,-11.02 3.71,-0.72 3.44,-9.63l-1.21 -4.19zm224.72 -695.7c15.25,-22.83 -5.75,-70.31 -17.2,-90.15 -41.72,-72.32 -69.78,-64.9 -50.59,-41.22 26.49,32.69 56.37,61.47 56.73,112.54 0.11,15.14 -3.11,17.1 11.05,18.83zm-390.65 749.07c12.07,0.66 26.49,-24.71 32.83,-33.11l62.52 -77.46c7.1,-10.07 33.82,-33.16 19.85,-40.19 -9.42,-4.75 -51.74,56.81 -64.29,71.87 -6.08,7.3 -9.53,11.01 -15.37,18.09l-30.95 39.23c-5.86,7.72 -11.84,13.69 -4.59,21.58zm-182.68 -636.46c-41.34,-7.82 -99.32,1.87 -142.07,-1.22 -13.25,-0.08 -70.05,-6.68 -79.27,1.51 -21.19,18.81 53.89,12.55 64.05,12.89l127.95 -0.26c17.89,0.2 29.8,4.75 29.34,-12.92zm54.25 -359.8c-59.16,21.19 -105.54,65.89 -143.84,113.08 -19.22,23.68 -34.06,49.33 -48.11,79.76 -7.2,15.61 -13.15,29.54 -19.64,44.39 -1.04,2.39 -29.12,42.39 -3.08,30.56 29.91,-13.59 30.9,-148.87 202,-245.68 44.02,-24.91 15.75,-23.2 12.67,-22.1zm302.92 135.96c14.04,-0.57 12.13,-3.57 16.05,-16.61l99.24 -308.63c4.3,-13.69 14.08,-32.72 10.7,-45.44 -15.01,-0.7 -12.69,-0.42 -17.85,16.97 -2.56,8.62 -4.5,14.49 -7.26,23.34l-45.89 142.73c-8.25,25.36 -61.55,172.63 -54.99,187.64zm24.38 -8.2c13.05,0.25 11.48,-2.45 16.27,-17.31 20.42,-63.4 116.72,-326.71 112.6,-345.37 -15.64,0.78 -12.82,1.47 -17.52,17.3l-86.52 254.33c-5.77,16.94 -31.99,78.23 -24.83,91.05zm-36.53 98.05c45.19,0 84.49,-1.58 115.03,-40.93 14.59,-18.79 25.84,-47.86 12.11,-71.71 -3.7,-6.44 -10.88,-15.38 -17.12,-9.19 -9.68,9.6 29.92,35.16 -12.23,78.85 -21.45,22.23 -57.54,28.14 -88.67,27.75 -44.44,-0.56 -98.66,-17.55 -113.28,-60.78 -5.66,-16.74 0.94,-42.12 -6.03,-54.51 -12.41,0.47 -11.91,3.53 -12.98,16.79 -6.1,75.79 61.76,113.72 123.16,113.72zm-624.1 224.55c12.63,16.63 73.13,7.02 97.44,8.45 37.89,2.23 246.93,1.01 287.82,-3.8 13.77,-1.62 11.92,1.55 17.44,-7.69 -4.38,-10.96 -3.07,-9.43 -17.54,-8.22l-345.67 3.78c-31.76,-0.12 -35.16,-7.9 -39.49,7.48zm454.12 -2.91c35,14.06 346.41,-34.7 418.01,-50.19 22.8,-4.93 42.11,-9.52 64.11,-15.11 32.34,-8.22 55.13,-9.42 51.5,-24.37 -10.6,-5.07 -22.13,0.58 -32.67,3.44 -132.03,35.87 -304.58,61.37 -440.82,70.4 -45.76,3.03 -59.07,-2.5 -60.14,15.84zm-150.04 -78.28c58.28,12.13 394.21,-29.09 476.31,-42.15 11.72,-1.86 21.35,-3.64 31.66,-5.26 14.58,-2.29 22.42,0.91 24.44,-14.32 -13.17,-7.71 -103.66,11.62 -127.38,14.74 -99.16,13.06 -170.7,19.13 -270.71,27.63l-106.65 5.2c-18.83,-0.19 -25.32,-2.8 -27.68,14.15zm201.29 1103.81c125.99,0 300.71,-32.13 406.67,-86.48 15.15,-7.77 13.89,-18.99 -3.15,-15.85 -14.03,2.59 -159.83,83.05 -361.02,84.82 -54.36,0.48 -99.3,0.9 -153.9,-5.18 -32.04,-3.56 -127.19,-24.08 -135.57,-20.91 2.31,14.45 6.15,12.67 21.61,16.46 67.46,16.52 155.76,27.13 225.36,27.13zm-497.17 -958.68c8.76,13.52 42.98,11.16 58.81,11.74l203.96 4.44c162.87,-0.33 350.96,-15.91 509.49,-42.86l173.79 -32.85c34.71,-7.46 43.13,-4.73 46.83,-20.27 -11.24,-8.2 -55.46,6.36 -74.94,10.41 -172.02,35.8 -420.8,70.25 -591.24,70.25 -101.6,0 -197.42,2.51 -298.27,-6.91 -34.33,-3.21 -24.81,-1.4 -28.42,6.05zm274.94 -97.8c193.29,0 423.86,-36.07 614.61,-70.19 76.11,-13.61 122.75,-38.43 120.59,79.78 -0.68,37.46 -33.62,41.5 -66.31,47.34 -241.37,43.07 -460.66,79.01 -714.56,79.01l-158.3 -2.2c-81.31,0.03 -89.71,-5.8 -92.94,-88.15 -2.44,-62.2 57.29,-46.69 99.03,-45.59l197.88 0zm-242.47 -28.2c-4.17,-69.64 21.98,-152.19 48.43,-205.06 30.63,-61.21 68.65,-103.78 111.09,-141.59 43.93,-39.13 103.35,-70.99 163.09,-89.43 75.57,-23.32 146.28,-25.03 225.73,-11.34 -9.8,42.61 -28.27,91.11 -41.33,131.86 -8.85,27.64 -15.14,40.11 1.38,66.01 28.75,45.09 141.05,70.98 162.32,0.19 12.41,-41.29 29.85,-86.94 39.85,-128.22 19.51,6.74 59.63,44.28 70.96,55.9 7.02,7.19 9.69,9.5 15.11,15.27 6.84,7.28 7.52,10.06 13.34,17.13 48.5,59.02 86.22,129.98 97.84,212.28 -33.25,3.45 -72.77,12.53 -106.9,18.5 -108.55,19 -210.86,33.31 -322.87,45.88 -106.94,12 -377.13,24.21 -478.04,12.61zm787.27 -705.88c-17.28,64.66 -61.18,195.41 -83.41,264.39 -14.2,44.05 -28.52,87.9 -41.56,131.97 -2.76,9.33 -18.34,61.09 -22.38,65.62 -22.9,25.64 -116.78,6.52 -115.02,-37.79 0.69,-17.28 131.14,-403.39 144.08,-460.79 32.95,24.88 63.12,42.76 118.29,36.61zm-104.65 -66.16c33.71,-25.79 101.54,4.93 112.68,33.49 -24.42,22.75 -101.51,-2.87 -112.68,-33.49zm37.59 365.31c22.17,-70.31 44.1,-138.62 66.57,-210.63 10.7,-34.28 23.62,-69.28 33.18,-104.18 19.83,-72.4 -132,-114.49 -164.46,-60.68 -7.47,12.38 -90.58,295.25 -100.12,310.23 -59.59,-20.58 -180.28,-7.9 -237.13,10.1 -89.6,28.37 -109.17,47.21 -173.3,94.61 -45.97,33.98 -92.1,98.01 -119.99,150.92 -38.82,73.64 -47.08,136.05 -51.29,217.06 -59.26,14.44 -54.65,63.63 -51.48,100.89 4.27,50.31 11.28,71.93 69.44,86.01 8.2,51.25 21.4,105.92 31.59,154.74l124.72 605.87c5.26,25.88 10.37,50.38 15.68,75.88 5.56,26.7 3.43,52.49 26.51,64.49 90.66,47.14 202.84,42.56 317.21,42.15 93.22,-0.33 231.94,-26.88 309.24,-56.2 21.9,-8.3 43.29,-17.41 62.25,-29.09 39.04,-24.04 40.19,-24.62 40.02,-51.83l28.43 -882.82c4.47,-8.89 0.42,-4.34 12.3,-10.5 42.54,-22.05 46.17,-43.01 41.27,-93.9 -8.3,-86.26 -31.65,-71.81 -67.14,-90.43 -11.29,-38.48 -15.73,-65.79 -31.06,-103.05 -60.14,-146.25 -160.76,-195.04 -182.45,-219.64z"/>
 </g>
</svg>
