<?xml version="1.0" encoding="UTF-8"?>
<!DOCTYPE svg PUBLIC "-//W3C//DTD SVG 1.1//EN" "http://www.w3.org/Graphics/SVG/1.1/DTD/svg11.dtd">
<!-- Creator: CorelDRAW 2018 (64-Bit) -->
<svg xmlns="http://www.w3.org/2000/svg" xml:space="preserve" width="31.3216mm" height="37.3942mm" version="1.1" style="shape-rendering:geometricPrecision; text-rendering:geometricPrecision; image-rendering:optimizeQuality; fill-rule:evenodd; clip-rule:evenodd"
viewBox="0 0 245.27 292.82"
 xmlns:xlink="http://www.w3.org/1999/xlink">
 <defs>
  <style type="text/css">
   <![CDATA[
    .fil0 {fill:#D97706}
    .fil1 {fill:white;fill-rule:nonzero}
   ]]>
  </style>
 </defs>
 <g id="Layer_x0020_1">
  <metadata id="CorelCorpID_0Corel-Layer"/>
  <g id="_2179890380640">
   <path class="fil0" d="M173.51 58.57c42.34,19.33 71.76,62.03 71.76,111.61 0,67.73 -54.91,122.63 -122.63,122.63 -67.73,0 -122.63,-54.91 -122.63,-122.63 0,-65.53 51.4,-119.05 116.08,-122.46 0.16,-0.31 0.31,-0.62 0.45,-0.94 1.33,-3.18 1.74,-6.2 0.61,-9.49 -2.43,-7.1 -12.37,-15.36 -17.56,-20.92l-8.33 -8.91 10.82 -5.64c13.95,-7.27 33.91,8.6 40.67,22.45 10.36,4.62 15.39,11.18 19.68,21.56 4.6,3.2 8.36,7.68 11.1,12.74z"/>
   <path class="fil1" d="M183.74 118.22l16.5 -16.5 0.01 0.01c1.09,-1.1 1.64,-2.55 1.64,-4.01 0,-1.46 -0.55,-2.92 -1.63,-4.01l-0.01 -0.01c-1.09,-1.09 -2.54,-1.63 -4.01,-1.63 -1.46,0 -2.92,0.55 -4.01,1.64l0.01 0.01 -16.35 16.35c1,0.9 2.03,1.88 3.08,2.93l0.01 -0.01c1.3,1.3 2.61,2.72 3.94,4.25l0.84 0.99zm-28.81 -66.1c13.2,6.86 28.22,37.11 -8.44,64.53 -23.65,17.69 -20.23,32.21 -19.07,40.9 -0.09,-0 -0.18,-0.01 -0.29,-0.03 -33.53,-3.59 -39.21,-43.43 -39.21,-43.43 -7.26,-39.2 29.25,-44.8 37.16,-63.73 7.59,-18.18 -8.3,-29.16 -18.73,-40.32 8.87,-4.62 26.69,11.46 29.22,21.35 12.33,4.39 15.65,10.9 19.36,20.72zm-38.9 91.32c-7.5,-32.8 57.41,-45.23 37.74,-80.01 -0.55,9.08 -3.56,19.43 -10.02,24.39 -11.73,9.01 -20.47,14.14 -27.44,22.01 -14.13,18.42 -0.29,33.59 -0.29,33.59l0.01 0.01zm-10.42 -40.77c10.17,-15.21 30.43,-21.02 35.21,-36.03 2.77,-8.7 0.99,-15.03 -3.95,-21.76 3.99,28.66 -24.98,31.73 -36.65,47.34 -8.15,17.79 -0.37,27.61 -0.37,27.61 -0.34,-9.57 5.76,-17.15 5.76,-17.15l0.01 0zm71.72 -23.54c3.83,2.33 7.49,4.89 10.98,7.67 2.36,-1.72 5.15,-2.57 7.93,-2.57 3.44,0 6.89,1.32 9.53,3.94l0.01 0.01c2.63,2.64 3.94,6.09 3.94,9.53 0,2.9 -0.93,5.81 -2.8,8.23 13.28,17.64 21.15,39.58 21.15,63.36 0,29.11 -11.8,55.48 -30.88,74.56 -19.08,19.08 -45.44,30.88 -74.56,30.88 -29.11,0 -55.48,-11.8 -74.56,-30.88 -19.08,-19.08 -30.88,-45.44 -30.88,-74.56 0,-29.12 11.8,-55.47 30.88,-74.56 13.47,-13.47 30.56,-23.31 49.7,-27.93 -0.79,0.69 -1.57,1.4 -2.34,2.12 -3.23,3.04 -5.96,6.15 -8.22,9.39 -12.71,4.95 -24.13,12.49 -33.6,21.96 -17.66,17.66 -28.59,42.07 -28.59,69.02 0,26.95 10.93,51.36 28.59,69.02 17.66,17.66 42.06,28.59 69.02,28.59 26.95,0 51.36,-10.93 69.02,-28.59 17.66,-17.66 28.59,-42.06 28.59,-69.02 0,-21.57 -7,-41.51 -18.85,-57.66l-15.7 15.7c8.01,12.01 12.68,26.44 12.68,41.96 0,20.91 -8.48,39.85 -22.18,53.56 -13.71,13.71 -32.64,22.18 -53.56,22.18 -20.91,0 -39.85,-8.48 -53.56,-22.18 -13.71,-13.71 -22.18,-32.64 -22.18,-53.56 0,-20.91 8.48,-39.85 22.18,-53.56 3.12,-3.12 6.5,-5.96 10.12,-8.5 0.14,2.62 0.47,5.32 0.98,8.12 0.04,0.27 0.08,0.55 0.13,0.83 -1.99,1.59 -3.9,3.29 -5.7,5.09 -12.29,12.29 -19.89,29.27 -19.89,48.02 0,18.75 7.6,35.73 19.89,48.02 12.29,12.29 29.27,19.89 48.02,19.89 18.75,0 35.73,-7.6 48.02,-19.89 12.29,-12.29 19.89,-29.27 19.89,-48.02 0,-18.75 -7.6,-35.73 -19.89,-48.02 -2.77,-2.77 -5.78,-5.3 -8.99,-7.56 1.83,-1.9 3.55,-3.88 5.14,-5.96l0.17 0.12 15.62 -15.62c-2.01,-1.56 -4.08,-3.05 -6.2,-4.45 0.6,-2.8 0.93,-5.7 0.93,-8.68zm-21.22 39.84c16.25,10.83 26.97,29.33 26.97,50.32 0,28.44 -19.65,52.29 -46.12,58.72 0.41,-2.84 0.62,-5.74 0.62,-8.69 0,-12.04 -3.52,-23.26 -9.59,-32.68 0.2,-0.59 0.31,-1.22 0.31,-1.87 0,-3.16 -2.56,-5.72 -5.72,-5.72 -0.1,0 -0.21,0 -0.31,0.01 0.16,-0.69 0.24,-1.41 0.24,-2.15 0,-5.26 -4.26,-9.52 -9.52,-9.52 -1.4,0 -2.89,0.16 -4.35,0.35 -3.13,-8.37 -10.01,-6.36 -13.01,-5.97 -1.3,-3.26 -4.49,-5.56 -8.22,-5.56 -2.55,0 -4.84,1.08 -6.46,2.8 -3.84,-1.86 -5.05,-3.27 -9.69,-4.05 -3.27,-0.55 -6.52,2.79 -8.38,5.24 2.14,-14.17 9.2,-26.73 19.38,-35.88 1.53,4.95 3.61,9.9 5.8,13.95 8.06,14.92 20.79,25.07 37.97,27 0.43,0.07 0.87,0.1 1.3,0.11l9.02 0.08 -1.19 -8.94c-0.65,-4.93 -1.39,-8.97 0.01,-13.92 2.28,-8.07 9.51,-14.84 15.99,-19.68 1.68,-1.25 3.32,-2.57 4.92,-3.95zm-73.87 58.44c5.15,0 9.32,4.17 9.32,9.32 0,5.15 -4.17,9.32 -9.32,9.32 -5.15,0 -9.32,-4.17 -9.32,-9.32 0,-5.15 4.17,-9.32 9.32,-9.32zm-11.22 -17.64c3.64,0 6.59,2.95 6.59,6.59 0,3.64 -2.95,6.59 -6.59,6.59 -3.64,0 -6.59,-2.95 -6.59,-6.59 0,-3.64 2.95,-6.59 6.59,-6.59zm16.4 0.2c2.81,0 5.09,2.28 5.09,5.09 0,2.81 -2.28,5.09 -5.09,5.09 -2.81,0 -5.09,-2.28 -5.09,-5.09 0,-2.81 2.28,-5.09 5.09,-5.09zm13.81 4.96c2.22,0 4.01,1.8 4.01,4.01 0,2.22 -1.8,4.01 -4.01,4.01 -2.22,0 -4.01,-1.8 -4.01,-4.01 0,-2.22 1.8,-4.01 4.01,-4.01zm11.76 5.96c3.33,0 6.02,2.7 6.02,6.02 0,3.33 -2.7,6.02 -6.02,6.02 -3.32,0 -6.02,-2.7 -6.02,-6.02 0,-3.33 2.7,-6.02 6.02,-6.02zm9.58 10.61c1.81,0 3.27,1.46 3.27,3.27 0,1.81 -1.46,3.27 -3.27,3.27 -1.8,0 -3.27,-1.46 -3.27,-3.27 0,-1.81 1.46,-3.27 3.27,-3.27z"/>
  </g>
 </g>
</svg>
